<svg xmlns="http://www.w3.org/2000/svg" width="184" height="43" viewBox="0 0 184 43" fill="none">
<g clip-path="url(#clip0_114_6543)">
<path d="M40.113 17.2961C40.0968 21.3296 39.0104 25.0299 36.869 28.4435C36.5188 29.0007 36.3502 29.691 36.1837 30.3423C34.5212 36.8406 28.8765 41.8338 22.2395 42.6528C14.1215 43.6547 6.71159 38.9753 4.14001 31.2219C4.11191 31.1365 4.09029 31.0488 4.07083 30.9612C3.79303 29.7126 3.32605 28.5647 2.66019 27.447C0.623676 24.0313 -0.164337 20.2866 0.0280721 16.3256C0.155624 13.7072 0.47991 11.1289 1.58897 8.7129C2.07647 7.65258 2.72613 6.71344 3.67953 6.01233C5.30419 4.81677 7.52663 4.77566 9.33614 6.01017C10.1458 6.56305 10.8614 7.26199 11.5845 7.93281C12.1769 8.48244 12.7065 9.09916 13.2849 9.66502C14.5225 10.8768 16.3407 10.8314 17.5027 9.54709C18.3999 8.55493 18.9555 7.41347 18.5696 6.05128C18.4237 5.53735 18.0681 5.06887 17.747 4.6231C16.7698 3.26632 17.0682 1.39129 18.4356 0.482448C19.8127 -0.433971 21.6806 -0.0033514 22.5194 1.42267C23.1356 2.47 23.0199 3.73157 22.2168 4.74752C20.8299 6.50138 21.3509 9.06021 23.3193 10.1595C24.4608 10.7968 25.7904 10.6323 26.7492 9.69964C27.6129 8.86005 28.4301 7.97284 29.3046 7.14514C29.7856 6.69072 30.3088 6.26335 30.8698 5.91496C33.4576 4.30717 36.401 5.11539 38.0311 7.85707C39.1196 9.68883 39.5736 11.7207 39.8309 13.8003C39.9746 14.959 40.0211 16.1286 40.1119 17.2939L40.113 17.2961ZM20.0559 25.44C19.0788 25.5676 18.0908 25.6466 17.1255 25.836C15.6089 26.1335 14.2231 26.7481 12.9865 27.7023C9.62151 30.3001 10.2344 34.8173 11.804 37.0429C12.2298 37.6477 12.8146 38.0556 13.5335 38.2644C15.29 38.7762 17.5546 37.9106 18.4572 36.3136C19.242 34.9255 19.2571 33.5622 17.5503 32.7627C16.8369 32.4283 16.3796 31.8268 16.1029 31.091C15.7548 30.1627 15.9332 29.4692 16.839 29.0656C17.6108 28.7226 18.4702 28.5041 19.3112 28.4067C20.7002 28.2455 22.0827 28.3775 23.3345 29.097C24.0511 29.5092 24.2641 30.0978 24.0349 30.8865C23.7982 31.7013 23.3107 32.3223 22.5756 32.7475C22.3421 32.8828 22.1076 33.0148 21.8849 33.1662C21.2925 33.5676 21.0601 34.1324 21.1315 34.8411C21.2807 36.3115 22.1238 37.2723 23.3885 37.9074C25.7601 39.0975 27.9912 38.2395 28.9522 35.7716C29.1013 35.3886 29.2148 34.9872 29.31 34.5868C30.0828 31.3496 28.8365 28.5376 25.9223 26.9277C24.0987 25.9204 22.126 25.533 20.0527 25.441L20.0559 25.44ZM9.13725 20.7865C9.16535 22.008 9.42586 23.0488 10.0215 23.9772C10.6906 25.0191 11.3856 25.4811 12.633 24.846C12.7606 24.7811 12.8968 24.7334 13.0308 24.6815C15.7202 23.6396 18.4702 22.9331 21.3887 23.2263C23.6069 23.4492 25.7071 24.1156 27.7566 24.9661C28.5057 25.2766 29.0873 25.1911 29.591 24.5549C29.9953 24.0421 30.3585 23.4557 30.5768 22.8443C31.4859 20.2963 30.8654 18.7729 28.4333 17.5958C27.6312 17.2073 26.7708 16.9001 25.9039 16.6967C21.9757 15.7759 18.0335 15.7792 14.1042 16.7064C12.7703 17.0213 11.4829 17.4822 10.3933 18.3607C9.58476 19.0131 9.05185 19.8095 9.13725 20.7886V20.7865Z" fill="url(#paint0_radial_114_6543)"/>
<path d="M71.8278 15.2689L70.896 14.2305C70.2836 13.5915 69.1919 12.8992 67.6477 12.2069C66.1034 11.5147 64.3994 11.1686 62.5622 11.1686C59.6334 11.1686 57.1839 12.0472 55.187 13.7778C53.1901 15.5351 52.2049 17.4788 52.2049 19.6088C52.2049 21.2596 52.6043 22.6441 53.4563 23.7091C54.2817 24.8008 55.2935 25.5995 56.4916 26.1054C57.6898 26.6379 58.9145 27.0639 60.1393 27.4367C61.3641 27.8094 62.3758 28.2354 63.2278 28.7147C64.0532 29.194 64.4792 29.8063 64.4792 30.5252C64.4792 31.2707 64.1597 31.8565 63.574 32.3091C62.9882 32.7618 62.1096 32.9748 60.9381 32.9748C59.873 32.9748 58.8346 32.7085 57.8495 32.1494C56.8377 31.5902 56.1987 31.1376 55.8792 30.8181C55.5597 30.4986 55.3467 30.2057 55.2136 29.9927L51.1133 34.0664L51.486 34.6255C51.7523 34.945 52.1783 35.3444 52.7641 35.8237C53.3498 36.3029 54.0687 36.7556 54.8675 37.2348C55.6662 37.7141 56.7046 38.1401 57.9826 38.4596C59.2607 38.8057 60.5919 38.9655 62.0297 38.9655C65.3312 38.9655 67.9139 38.1667 69.8043 36.5426C71.6947 34.945 72.6532 32.9215 72.6532 30.5252C72.6532 28.8744 72.2272 27.4633 71.4018 26.345C70.5498 25.2268 69.5381 24.4014 68.3133 23.8955C67.0885 23.3896 65.8638 22.9636 64.6656 22.5909C63.4675 22.2181 62.4557 21.8187 61.6303 21.3395C60.7783 20.8868 60.3789 20.3011 60.3789 19.6088C60.3789 19.0497 60.6718 18.5438 61.2576 18.1178C61.8433 17.6918 62.6421 17.4522 63.6538 17.4522C64.4526 17.4522 65.2247 17.6652 65.9969 18.0645C66.7424 18.4639 67.2483 18.7834 67.4879 19.023C67.7275 19.2893 67.9139 19.4757 68.0204 19.6088L71.8278 15.2689Z" fill="url(#paint1_radial_114_6543)"/>
<path d="M72.0984 25.067C72.0984 28.7946 73.5095 32.0429 76.385 34.8119C79.234 37.581 82.6154 38.9655 86.5293 38.9655C87.9138 38.9655 89.2451 38.7791 90.4965 38.3797C91.7479 37.9803 92.7597 37.5543 93.5318 37.0751C94.3306 36.5958 95.0495 36.0633 95.7151 35.4509C96.4073 34.8385 96.8334 34.4125 97.0197 34.1463C97.2061 33.88 97.3392 33.6936 97.4457 33.5339L93.0792 28.9011L92.3603 29.8063C91.881 30.3921 91.0823 30.9779 89.9906 31.5636C88.899 32.1494 87.7541 32.4422 86.5293 32.4422C84.6123 32.4422 82.9615 31.7234 81.5504 30.2856C80.1659 28.8478 79.447 27.1172 79.447 25.0936C79.447 23.0701 80.1659 21.3128 81.5504 19.8751C82.9349 18.4373 84.6123 17.7184 86.5293 17.7184C87.7541 17.7184 88.899 18.0645 89.9906 18.7035C91.0823 19.3426 91.8012 19.8751 92.1207 20.2744C92.4402 20.7004 92.6798 21.02 92.8129 21.2596L97.4457 16.6268L97.0464 16.0676C96.7801 15.6949 96.3275 15.2156 95.6885 14.6831C95.0761 14.1506 94.3572 13.6447 93.5584 13.1122C92.7597 12.5797 91.7479 12.1271 90.4965 11.7543C89.2451 11.3816 87.9138 11.1686 86.5293 11.1686C82.6154 11.1686 79.234 12.5797 76.3584 15.3487C73.5095 18.1178 72.0984 21.3661 72.0984 25.067Z" fill="url(#paint2_radial_114_6543)"/>
<path d="M102.936 25.0936C102.936 23.0967 103.575 21.4193 104.88 20.0348C106.158 18.6769 107.702 17.9847 109.486 17.9847C111.243 17.9847 112.787 18.6769 114.092 20.0348C115.37 21.4193 116.036 23.0967 116.036 25.0936C116.036 27.0905 115.37 28.7679 114.092 30.1258C112.787 31.4837 111.243 32.1494 109.486 32.1494C107.702 32.1494 106.158 31.4837 104.88 30.1258C103.575 28.7679 102.936 27.0905 102.936 25.0936ZM123.65 25.067C123.65 21.3661 122.239 18.1178 119.417 15.3487C116.595 12.5797 113.293 11.1952 109.486 11.1952C105.652 11.1952 102.35 12.5797 99.5278 15.3487C96.7056 18.1178 95.2944 21.3661 95.2944 25.067C95.2944 28.7946 96.7056 32.0429 99.5278 34.8119C102.35 37.581 105.652 38.9655 109.486 38.9655C113.293 38.9655 116.595 37.581 119.417 34.8119C122.239 32.0429 123.65 28.7946 123.65 25.067Z" fill="url(#paint3_radial_114_6543)"/>
<path d="M142.745 38.433H150.094V11.7011H142.745V25.8924C142.745 27.9159 142.239 29.4602 141.254 30.5252C140.269 31.6169 138.938 32.1494 137.287 32.1494C135.796 32.1494 134.545 31.6701 133.559 30.685C132.574 29.7265 132.095 28.4751 132.095 26.984V11.7011H124.746V27.7029C124.746 31.111 125.705 33.8534 127.622 35.9036C129.539 37.9537 132.042 38.9655 135.104 38.9655C136.541 38.9655 137.926 38.6726 139.257 38.0868C140.588 37.5011 141.44 37.0218 141.84 36.6491C142.213 36.2763 142.532 35.9834 142.745 35.7172V38.433Z" fill="url(#paint4_radial_114_6543)"/>
<path d="M156.355 8.71902C156.355 9.78404 156.062 10.636 155.476 11.2751C154.891 11.9407 154.172 12.2602 153.346 12.2602H150.897V18.81H155.53V29.6998C155.53 35.8769 158.325 38.9655 163.97 38.9655C165.78 38.9921 167.431 38.7258 168.896 38.1667V31.8831L168.576 31.9896C168.336 32.0961 167.99 32.2026 167.538 32.3091C167.085 32.4156 166.632 32.4422 166.153 32.4422C165.195 32.4422 164.422 32.1494 163.81 31.5636C163.198 30.9779 162.905 30.2856 162.905 29.4336V18.81H168.336V12.2602H162.905V3.81995H156.355V8.71902Z" fill="url(#paint5_radial_114_6543)"/>
<path d="M183.381 3.85548C183.076 3.76173 182.725 3.85548 182.537 4.11329L179.771 7.81642L176.982 4.11329C176.795 3.85548 176.443 3.76173 176.139 3.85548C175.834 3.94923 175.646 4.25392 175.646 4.5586V10.5586C175.646 10.9805 175.975 11.3086 176.396 11.3086C176.795 11.3086 177.146 10.9805 177.146 10.5586V6.8086L179.162 9.52735C179.443 9.90235 180.076 9.90235 180.357 9.52735L182.396 6.8086V10.5586C182.396 10.9805 182.725 11.3086 183.146 11.3086C183.545 11.3086 183.896 10.9805 183.896 10.5586V4.5586C183.896 4.25392 183.686 3.94923 183.381 3.85548ZM174.146 3.83204H169.646C169.225 3.83204 168.896 4.16017 168.896 4.58204C168.896 4.98048 169.225 5.33204 169.646 5.33204H171.146V10.5586C171.146 10.957 171.475 11.3086 171.896 11.3086C172.295 11.3086 172.646 10.957 172.646 10.5586V5.3086H174.146C174.545 5.3086 174.896 4.98048 174.896 4.5586C174.896 4.16017 174.545 3.83204 174.146 3.83204Z" fill="#404040"/>
</g>
<defs>
<radialGradient id="paint0_radial_114_6543" cx="0" cy="0" r="1" gradientUnits="userSpaceOnUse" gradientTransform="translate(4.70461 25.6723) rotate(25.7971) scale(39.3277 146.424)">
<stop stop-color="#205EFE"/>
<stop offset="1" stop-color="#082AA0"/>
</radialGradient>
<radialGradient id="paint1_radial_114_6543" cx="0" cy="0" r="1" gradientUnits="userSpaceOnUse" gradientTransform="translate(64.9272 24.9083) rotate(7.70101) scale(104.915 132.388)">
<stop stop-color="#205EFE"/>
<stop offset="1" stop-color="#082AA0"/>
</radialGradient>
<radialGradient id="paint2_radial_114_6543" cx="0" cy="0" r="1" gradientUnits="userSpaceOnUse" gradientTransform="translate(64.9272 24.9083) rotate(7.70101) scale(104.915 132.388)">
<stop stop-color="#205EFE"/>
<stop offset="1" stop-color="#082AA0"/>
</radialGradient>
<radialGradient id="paint3_radial_114_6543" cx="0" cy="0" r="1" gradientUnits="userSpaceOnUse" gradientTransform="translate(64.9272 24.9083) rotate(7.70101) scale(104.915 132.388)">
<stop stop-color="#205EFE"/>
<stop offset="1" stop-color="#082AA0"/>
</radialGradient>
<radialGradient id="paint4_radial_114_6543" cx="0" cy="0" r="1" gradientUnits="userSpaceOnUse" gradientTransform="translate(64.9272 24.9083) rotate(7.70101) scale(104.915 132.388)">
<stop stop-color="#205EFE"/>
<stop offset="1" stop-color="#082AA0"/>
</radialGradient>
<radialGradient id="paint5_radial_114_6543" cx="0" cy="0" r="1" gradientUnits="userSpaceOnUse" gradientTransform="translate(64.9272 24.9083) rotate(7.70101) scale(104.915 132.388)">
<stop stop-color="#205EFE"/>
<stop offset="1" stop-color="#082AA0"/>
</radialGradient>
<clipPath id="clip0_114_6543">
<rect width="183.895" height="42.7872" fill="white"/>
</clipPath>
</defs>
</svg>